<svg xmlns="http://www.w3.org/2000/svg" fill-rule="evenodd" clip-rule="evenodd" image-rendering="optimizeQuality" shape-rendering="geometricPrecision" text-rendering="geometricPrecision" viewBox="0 0 200 200"><path fill="#020202" d="M45.5 33.8q-3.732 2.832-9 2v128h9v3h-12v-133z"/><path fill="#020202" d="M45.5 166.8q-3.732-2.832-9-2v-128h9v-3h-12v133zm108.1-133q3.732 2.832 9 2v128h-9v3h12v-133z"/><path fill="#020202" d="M153.6 166.8q3.732-2.832 9-2v-128h-9v-3h12v133z"/><path fill="#5b728d" d="M64.5 57.5q4.815 2.782 9 7 5.73-1.95 11.5 0 3.73-2.655 6.5-6.5 2.244-.76 3.5 1.5a18.1 18.1 0 0 1 2.5 6.5A65.2 65.2 0 0 0 95 81.5q-2 4-6 6-1.405 7.355 2 14 13.72 6.719 19 21 .745 3.465.5 7 13.41 1.984 11.5-11-4.347-9.348-13-15-18.62-24.429 8.5-38.5 13.212-.067 18 12.5-.599 3.849-4.5 4-4.085-1.561-7.5-4.5-6.276-1.748-8.5 4.5-3.395 7.135 2 13 16.949 10.415 19.5 30-1.373 16.46-18 17.5-24.995.75-50 .5-.59-5.144 2-9.5a4.93 4.93 0 0 1 3-.5 50.4 50.4 0 0 0-.5-10q-5.865-11.366-1-23a30.5 30.5 0 0 0 0-11q-4.5-2.5-7-7-.435-8.343-3.5-16-.15-4.686 3-8"/><path fill="#070708" d="M65.5 62.5a71.4 71.4 0 0 1 8.5 6 42.7 42.7 0 0 1 12.5-.5l5.5-5.5 1 1a82.7 82.7 0 0 0-1 15q-2.542 4.792-7.5 7-1.68 10.748 4.5 20 16.82 9.635 18.5 29a49.2 49.2 0 0 0 15-3.5q7.212-7.895 1.5-17.5-6-8-14-14-10.389-16.228 3.5-29.5 12.502-5.916 19 6.5l-2 1q-12.524-11.62-19.5 4a25.2 25.2 0 0 0 0 10 168 168 0 0 1 17 19q13.407 21.2-10.5 27.5a129.6 129.6 0 0 1-34 .5q1.888-8.513-.5-17a84 84 0 0 1-2 17q-4.585 1.426-9.5 1 0-5 5-5 1.245-5.964.5-12-6.252-10.254-1-21a49.3 49.3 0 0 0 0-14q-5.46-3.459-9-9-.864-2.815.5-5.5-2.459-4.953-2-10.5"/><path fill="#677913" d="M70.5 75.5a18.4 18.4 0 0 1 6 .5q-3.702 5.06-6-.5"/><path fill="#708414" d="M82.5 75.5q2.587 1.167 5 1-3.446 4.185-5-1"/></svg>