<svg xmlns="http://www.w3.org/2000/svg" xmlns:xlink="http://www.w3.org/1999/xlink" viewBox="0 0 128 128"><defs><linearGradient id="a"><stop offset="0" stop-color="#d2d2d2"/><stop offset="1" stop-color="#fff"/></linearGradient><linearGradient xlink:href="#a" id="f" x1="40.459" x2="36.064" y1="389.66" y2="357.28" gradientTransform="matrix(2.3025 0 0 .29683 -.92 -1.512)" gradientUnits="userSpaceOnUse"/><linearGradient xlink:href="#a" id="e" x1="123.71" x2="98.354" y1="141.42" y2="113.41" gradientTransform="matrix(.9168 0 0 .74548 -.92 -1.512)" gradientUnits="userSpaceOnUse"/><linearGradient xlink:href="#a" id="g" x1="132.04" x2="119.62" y1="135.68" y2="111.07" gradientTransform="matrix(.90171 0 0 .75796 -.92 -1.512)" gradientUnits="userSpaceOnUse"/><linearGradient xlink:href="#a" id="b" x1="41.674" x2="36.083" y1="320.41" y2="279.22" gradientTransform="matrix(2.3376 0 0 .29237 -.92 -1.512)" gradientUnits="userSpaceOnUse"/><linearGradient xlink:href="#a" id="c" x1="134.95" x2="102.05" y1="108.17" y2="71.836" gradientTransform="matrix(.9168 0 0 .74548 -.92 -1.512)" gradientUnits="userSpaceOnUse"/><linearGradient xlink:href="#a" id="d" x1="145.32" x2="129.22" y1="101.97" y2="70.041" gradientTransform="matrix(.90171 0 0 .75796 -.92 -1.512)" gradientUnits="userSpaceOnUse"/></defs><rect width="48.725" height="42.168" x="67.536" y="66.475" fill-opacity=".472" fill-rule="evenodd" rx=".781" ry=".742"/><rect width="63.211" height="54.706" x="64.472" y="30.558" fill-opacity=".472" fill-rule="evenodd" rx=".781" ry=".742"/><rect width="57.843" height="9.005" x="65.398" y="82.153" fill-opacity=".471" fill-rule="evenodd" rx=".662" ry=".629"/><rect width="54.911" height="6.145" x="64.622" y="82.283" fill="url(#b)" fill-opacity=".75" fill-rule="evenodd" stroke="#000" stroke-width=".827" rx=".449" ry=".429"/><rect width="57.905" height="47.084" x="63.785" y="32.457" fill="url(#c)" fill-rule="evenodd" rx="1.634" ry="1.782"/><rect width="44.587" height="6.941" x="68.25" y="106.25" fill-opacity=".471" fill-rule="evenodd" rx=".662" ry=".629"/><rect width="64.637" height="54.069" x="59.853" y="28.741" fill="url(#d)" fill-rule="evenodd" stroke="#000" stroke-width="1.659" rx="1.397" ry="1.412"/><rect width="51.129" height="39.964" x="66.359" y="34.896" fill="#00b4ed" fill-rule="evenodd" stroke="#000" stroke-linejoin="round" stroke-width=".791" rx=".542" ry=".542"/><rect width="44.635" height="36.294" x="67.006" y="67.938" fill="url(#e)" fill-rule="evenodd" rx="1.634" ry="1.782"/><path fill="#444040" fill-opacity=".471" fill-rule="evenodd" d="M89.497 104.32a33.619 6.389-.328 1 1-67.208 0 33.619 6.389-.328 1 1 67.208 0"/><path fill="#4e4d4b" fill-rule="evenodd" stroke="#000" stroke-opacity=".957" stroke-width="2.3" d="M58.291 27.532a19.367 19.557 0 1 1-38.734 0 19.367 19.557 0 1 1 38.734 0z" transform="matrix(-1.0172 -.47377 -.55238 1.3286 116.85 57.273)"/><path fill="url(#linearGradient612)" fill-rule="evenodd" stroke="#000" stroke-opacity=".957" stroke-width="2.061" d="M58.291 27.532a19.367 19.557 0 1 1-38.734 0 19.367 19.557 0 1 1 38.734 0z" transform="matrix(-1.4321 -.79697 -1.13 2.235 128.08 29.383)"/><path fill="url(#radialGradient616)" fill-rule="evenodd" stroke="#000" stroke-opacity=".978" stroke-width=".317" d="M58.291 27.532a19.367 19.557 0 1 1-38.734 0 19.367 19.557 0 1 1 38.734 0z" transform="matrix(-1.1546 -.69851 -.95635 1.9589 108.07 31.116)"/><path fill-rule="evenodd" d="M35.617 51.868a21.618 10.732-67.797 1 0 15.298 17.61 21.618 10.732-67.797 1 0-15.298-17.61"/><path fill="url(#linearGradient687)" fill-rule="evenodd" stroke="#3f3b3b" stroke-width=".774" d="M58.291 27.532a19.367 19.557 0 1 1-38.734 0 19.367 19.557 0 1 1 38.734 0z" transform="matrix(-.36949 -.40958 -.49472 .84885 70.248 52.067)"/><rect width="42.326" height="4.736" x="67.652" y="106.34" fill="url(#f)" fill-opacity=".75" fill-rule="evenodd" stroke="#000" stroke-width=".827" rx=".449" ry=".429"/><rect width="49.824" height="41.677" x="63.976" y="65.074" fill="url(#g)" fill-rule="evenodd" stroke="#000" stroke-width="1.279" rx="1.397" ry="1.412"/><rect width="39.412" height="30.806" x="68.99" y="70.097" fill="#003d88" fill-rule="evenodd" stroke="#000" stroke-linejoin="round" stroke-opacity=".93" stroke-width=".614" rx=".542" ry=".542"/></svg>